<?xml version="1.0" encoding="UTF-8"?>
<svg id="Layer_1" data-name="Layer 1" xmlns="http://www.w3.org/2000/svg" xmlns:xlink="http://www.w3.org/1999/xlink" viewBox="0 0 1522.67 465.33">
  <defs>
    <style>
      .cls-1 {
        fill: url(#linear-gradient);
      }

      .cls-1, .cls-2, .cls-3, .cls-4, .cls-5, .cls-6, .cls-7, .cls-8 {
        stroke-width: 0px;
      }

      .cls-2 {
        fill: #7c8a99;
      }

      .cls-2, .cls-5, .cls-6, .cls-7, .cls-8 {
        fill-rule: evenodd;
      }

      .cls-3 {
        fill: #05142d;
      }

      .cls-4, .cls-6 {
        fill: #fff;
      }

      .cls-5 {
        fill: #252063;
      }

      .cls-7 {
        fill: #007adf;
      }

      .cls-8 {
        fill: #acbac9;
      }
    </style>
    <linearGradient id="linear-gradient" x1="222.97" y1="16.98" x2="222.97" y2="448.36" gradientUnits="userSpaceOnUse">
      <stop offset="0" stop-color="#007adf"/>
      <stop offset="1" stop-color="#252063"/>
    </linearGradient>
  </defs>
  <g>
    <path class="cls-4" d="m515.49,298.95c-6.44-2.5-11.54-6.11-15.28-10.83-3.75-4.71-5.67-10.27-5.78-16.69h24.78c.33,4.31,2.01,7.72,5.04,10.22,3.03,2.51,7.19,3.76,12.47,3.76s9.63-1.18,12.72-3.53c3.08-2.35,4.62-5.44,4.62-9.25,0-3.11-1.05-5.66-3.14-7.67-2.09-2-4.71-3.58-7.85-4.74-3.14-1.15-7.46-2.43-12.97-3.83-7.49-2-13.57-3.98-18.25-5.94-4.68-1.95-8.7-4.91-12.06-8.87-3.36-3.96-5.04-9.25-5.04-15.86,0-6.21,1.71-11.63,5.12-16.24,3.41-4.61,8.2-8.14,14.37-10.6,6.17-2.45,13.21-3.68,21.14-3.68,11.89,0,21.56,2.63,28.99,7.89,7.43,5.26,11.53,12.61,12.31,22.03h-25.44c-.22-3.61-1.9-6.59-5.04-8.95-3.14-2.35-7.3-3.53-12.47-3.53-4.52,0-8.12,1.05-10.82,3.16-2.7,2.1-4.05,5.16-4.05,9.17,0,2.81,1.02,5.14,3.06,6.99,2.04,1.86,4.57,3.36,7.6,4.51,3.03,1.15,7.29,2.48,12.8,3.98,7.49,2.01,13.6,4.01,18.34,6.01,4.73,2.01,8.81,5.01,12.22,9.02,3.41,4.01,5.12,9.27,5.12,15.79,0,5.61-1.6,10.83-4.79,15.64-3.2,4.81-7.88,8.65-14.04,11.5-6.17,2.86-13.49,4.28-21.97,4.28-8.04,0-15.28-1.25-21.72-3.76Z"/>
    <path class="cls-4" d="m655.48,295.8c-9.03-4.61-16.19-11-21.47-19.17-5.29-8.17-7.93-17.42-7.93-27.74s2.64-19.42,7.93-27.59c5.29-8.17,12.44-14.56,21.47-19.17,9.03-4.61,18.94-6.92,29.73-6.92s20.84,2.31,29.82,6.92c8.97,4.61,16.08,11,21.31,19.17,5.23,8.17,7.85,17.37,7.85,27.59s-2.62,19.57-7.85,27.74c-5.23,8.17-12.36,14.56-21.39,19.17-9.03,4.61-18.94,6.92-29.73,6.92s-20.71-2.3-29.73-6.92Zm48.07-16.16c5.29-2.86,9.42-6.94,12.39-12.25,2.97-5.31,4.46-11.48,4.46-18.49s-1.49-13.16-4.46-18.42c-2.97-5.26-7.1-9.3-12.39-12.1-5.29-2.81-11.4-4.21-18.33-4.21s-13.08,1.4-18.42,4.21c-5.34,2.81-9.5,6.84-12.47,12.1-2.97,5.26-4.46,11.4-4.46,18.42s1.49,13.18,4.46,18.49c2.97,5.31,7.13,9.4,12.47,12.25,5.34,2.86,11.48,4.29,18.42,4.29s13.05-1.43,18.33-4.29Z"/>
    <path class="cls-4" d="m818.18,284.97h37.99v16.69h-61.12v-104.95h23.13v88.26Z"/>
    <path class="cls-4" d="m927.7,196.71v104.95h-23.13v-104.95h23.13Z"/>
    <path class="cls-4" d="m1056.46,203.18c9.19,4.31,16.3,10.45,21.31,18.42,5.01,7.97,7.52,17.22,7.52,27.74s-2.51,19.72-7.52,27.59c-5.01,7.87-12.12,13.96-21.31,18.27-9.2,4.31-19.85,6.47-31.96,6.47h-40.3v-104.95h40.3c12.11,0,22.77,2.16,31.96,6.47Zm-4.71,71.57c6.61-6.01,9.91-14.48,9.91-25.41s-3.3-19.47-9.91-25.64-15.97-9.25-28.08-9.25h-16.35v69.31h16.35c12.11,0,21.47-3.01,28.08-9.02Z"/>
    <path class="cls-4" d="m1154.41,298.95c-6.44-2.5-11.54-6.11-15.28-10.83-3.75-4.71-5.67-10.27-5.78-16.69h24.78c.33,4.31,2.01,7.72,5.04,10.22,3.03,2.51,7.19,3.76,12.47,3.76s9.63-1.18,12.72-3.53c3.08-2.35,4.62-5.44,4.62-9.25,0-3.11-1.05-5.66-3.14-7.67-2.09-2-4.71-3.58-7.85-4.74-3.14-1.15-7.46-2.43-12.97-3.83-7.49-2-13.57-3.98-18.25-5.94-4.68-1.95-8.7-4.91-12.06-8.87-3.36-3.96-5.04-9.25-5.04-15.86,0-6.21,1.71-11.63,5.12-16.24,3.41-4.61,8.2-8.14,14.37-10.6,6.17-2.45,13.21-3.68,21.14-3.68,11.89,0,21.56,2.63,28.99,7.89,7.43,5.26,11.53,12.61,12.31,22.03h-25.44c-.22-3.61-1.9-6.59-5.04-8.95-3.14-2.35-7.3-3.53-12.47-3.53-4.52,0-8.12,1.05-10.82,3.16-2.7,2.1-4.05,5.16-4.05,9.17,0,2.81,1.02,5.14,3.06,6.99,2.04,1.86,4.57,3.36,7.6,4.51,3.03,1.15,7.29,2.48,12.8,3.98,7.49,2.01,13.6,4.01,18.34,6.01,4.73,2.01,8.81,5.01,12.22,9.02,3.41,4.01,5.12,9.27,5.12,15.79,0,5.61-1.6,10.83-4.79,15.64-3.2,4.81-7.88,8.65-14.04,11.5-6.17,2.86-13.49,4.28-21.97,4.28-8.04,0-15.28-1.25-21.72-3.76Z"/>
    <path class="cls-4" d="m1293.74,213.7v26.31h38.82v16.69h-38.82v27.82h43.77v17.14h-66.9v-105.1h66.9v17.14h-43.77Z"/>
    <path class="cls-4" d="m1472.47,228.29c-2.64-4.41-6.28-7.77-10.9-10.07-4.62-2.3-10.02-3.46-16.19-3.46-6.83,0-12.88,1.41-18.17,4.21-5.29,2.81-9.42,6.82-12.39,12.03-2.97,5.21-4.46,11.23-4.46,18.04s1.51,13.13,4.54,18.34c3.03,5.21,7.24,9.22,12.64,12.03,5.39,2.81,11.67,4.21,18.83,4.21,8.81,0,16.02-2.13,21.64-6.39,5.62-4.26,9.3-10.2,11.07-17.82h-39.64v-16.09h62.44v18.34c-1.54,7.32-4.85,14.08-9.91,20.3-5.07,6.22-11.59,11.2-19.57,14.96-7.99,3.76-16.93,5.64-26.84,5.64-11.12,0-21.17-2.28-30.15-6.84-8.98-4.56-16.02-10.9-21.14-19.02-5.12-8.12-7.68-17.34-7.68-27.67s2.56-19.57,7.68-27.74c5.12-8.17,12.17-14.53,21.14-19.09,8.97-4.56,18.97-6.84,29.98-6.84,12.99,0,24.28,2.88,33.86,8.65,9.58,5.77,16.19,13.86,19.82,24.28h-26.59Z"/>
  </g>
  <g>
    <polygon class="cls-3" points="349.12 305.51 222.97 378.34 96.81 305.51 96.81 159.83 222.97 87 349.12 159.83 349.12 305.51"/>
    <path class="cls-1" d="m409.77,229.91v-105.08L222.97,16.98,36.17,124.82v88.92h37.52v105.12l54.15,31.25-6.95,11.47-60.6-34.99v-91.16h-24.12v105.09l186.8,107.84,186.8-107.83v-88.93h-37.52v-105.11l-63.44-36.62,6.95-11.46,69.89,40.34v91.16h24.12Zm-60.64-70.07v145.67l-126.16,72.84-50.29-29.05-11.56,20.02,61.85,35.72,149.28-86.18v-43.14h13.4v50.88l-162.68,93.91-82.05-47.37,18.94-31.24-63.05-36.39v-145.68l126.16-72.83,40.93,23.63,11.57-20.02-52.5-30.31-149.28,86.18v43.14h-13.4v-50.87L222.97,44.84l72.77,42.01-18.94,31.23,72.33,41.76Z"/>
    <g>
      <g>
        <path class="cls-6" d="m272.73,272.47c.63,1.22,1.28,2.5,1.92,3.81,1.22-4.28,2.17-8.27,2.92-11.84-1.54,2.72-3.15,5.4-4.84,8.03m11.92,28.78c26.55-34.4,41.59-77.1,41.59-122.06,0-2.04-.03-4.07-.09-6.11v-.02s-.01,0-.01,0c-30.4-17.57-64.7-26.68-99.81-26.68-15.89,0-31.63,1.87-46.9,5.54,0,0,75.36-10.65,130.04,32.48,0,0,2.19,14.13-.93,30.43,1.94,5.16,4.02,11.16,4.75,16.66-3.75,2.11-11.18-7.65-16.97-16.6-2.91,13.81-7.49,27.11-13.56,39.65,2.6,12.04,2.31,27.83.63,42.74.44,1.31.86,2.63,1.26,3.95Z"/>
        <path class="cls-2" d="m283.5,175.76c11.54,7.15,16.26,13.12,16.26,13.12-.15,2.76-.37,5.51-.66,8.25,4.26,6.11,7.3,12.3,9.44,17.71,3.11-16.31,2.85-31.17,2.85-31.17-54.68-43.13-131.97-31.75-131.97-31.75,51.9-3.18,85.86,11.98,104.08,23.84"/>
        <path class="cls-8" d="m282.56,303.84c15.23-19.05,27.04-40.94,34.52-64.76-1.55-3.25-3.13-6.36-4.73-9.35-3.38-6.14-15.86-26.87-37.05-40.64,0,0,2.78.53,7.39,1.91-19.43-17.01-56.28-31.1-81.53-13.52,1.08,2.17,4.37,2.06,6.37,1.52,3.26-4.22,8.05-4.75,8.05-4.75-3.74,2.18-4.27,4.69-4.32,5.66,3.22,1.16,4.98,2.84,4.98,2.84-22.24-9.42-38.52,18.06-15.53,40.04,0,0-3.67-17.01,13.51-17.98,0,0-6.41,1.42-8.57,7.88,0,0,6.93-8.07,28.77,1.33-1.74-2.21-4.06-4.61-7.03-6.61,6.63,1.07,13.44,6.25,19,6.14,3.14-.06,6-1.46,5.45-3.28-1.09-3.59-18.22-6.27-24.5-14.09,13.19,8.88,42.5,4.63,45.36,31.93,0,0-12.49-10.24-29.24-9.42,0,0,8.33,7.8,8.9,20.17,0,0-7.98-13.2-25.13-16.96,4.61,4.59,10.18,13.58,9.76,30.08,0,0-4.67-13.56-14.01-21.23,0,0,.26,22.9-9.42,39.99,0,0,2.11-22.2-3.35-37.7,0,0-3.96,27.04-28.7,45.31h0s8.96-2.02,20.06-9.07c0,0,2.11,13.92-6.69,40.34,12.73-1.74,39.51-18.72,46.97-30.51-1.41,34.67-20.58,52.82-20.58,52.82-3.44-.26-16.16-1.4-29.07-4.58,10.43,9.44,21.86,17.79,34.11,24.88,51.07-41.85,53.87-106.05,53.87-106.05,5.82,13.8,5.24,37.27,2.36,57.65"/>
        <path class="cls-2" d="m243.46,218.69s8.33,7.8,8.9,20.17c0,0-7.98-13.2-25.13-16.96,4.61,4.59,10.18,13.58,9.76,30.08,0,0-4.67-13.56-14.01-21.23,0,0,.26,22.9-9.42,39.99,0,0,2.11-22.2-3.35-37.7,0,0-3.96,27.04-28.7,45.31h0s8.96-2.02,20.06-9.07c4.58,12.22,4.09,24.92,4.09,24.92,0,0,12.49-8.18,21.45-31.29.97,2.07,2.4,5.79,3.17,10.98,13.19-9.62,16.82-23.1,16.82-23.1,0,0,8.97,22.31,3.07,52.79,12.05-28.31,7.43-58.08,7.43-58.08,3.24,5.28,4.61,9.94,4.61,9.94.52-28.04-18.75-36.77-18.75-36.77"/>
        <path class="cls-2" d="m200.71,222.8s-3.67-17.01,13.51-17.98c0,0-6.41,1.42-8.57,7.88,0,0,6.93-8.07,28.77,1.33-1.74-2.21-4.06-4.61-7.03-6.61,6.63,1.07,13.44,6.25,19,6.14,3.14-.06,6-1.46,5.45-3.28-1.09-3.59-18.22-6.27-24.5-14.09-12.33-.89-19.59,4.13-19.59,4.13,4.05-4.88,11.03-5.6,11.03-5.6-28.62.19-18.07,28.09-18.07,28.09"/>
        <path class="cls-6" d="m256.58,185.22s-2.61,11.82-13.81,9.28c-11.2-2.54,1.06-10.92,3.32-11.28,2.25-.35,6.24-2.05,10.5,1.99m-36.69-.11s8.1-.24,17.22-4.93c0,0-2.04,2.82-5.67,4.9-3.63,2.08-7.43,2.5-11.55.03Zm56.98,125.54c9.61-10.99,18.05-23.03,25.09-35.95.06-1.15,1.44-27.95-9.32-51.94,0,0,10.84,9.61,18.39,32.93,2.25-5.42,4.26-10.95,6.04-16.6-.14-2.6-1.2-6.07-1.2-6.07l-2.59-1.5h0s0,0,0,0h0,0s0,0,0,0c0,0-12.88-26.09-37.99-42.41,0,0,5.18.98,13.13,3.78-12.68-12.52-28.49-21.82-45.41-24.85-20.04-4.1-36.27,2.28-41.86,9.46h0c1.39,2.87,6.37,1.52,6.37,1.52,3.26-4.22,8.05-4.75,8.05-4.75-3.74,2.18-4.27,4.69-4.32,5.66,3.22,1.16,4.98,2.84,4.98,2.84-20.99-9.48-39.87,16.76-15.53,40.04-7.08-12.97-2.42-26.45-.25-29.5-4.49,2.61-5.99,10.61-5.99,10.61,0,0-1.93-23.75,28.56-15.4,1.01.28,1.96.53,2.84.75.77.82-.41.81,3.16,4,3.57,3.19,8.57,5.23,8.57,5.23-5.59-.58-10.25-2.3-10.25-2.3,6.97,4.69,18.43,5.72,28.13,9.67h0s26.24,4.71,21.03,32.19c0,0-6.43-8.32-16.19-12.46,15.19,17.83,10.99,36.91,10.99,36.91,0,0,5.2-5.73,8.9-16.3,0,0,7.49,26.49-3.32,64.46Z"/>
        <path class="cls-5" d="m242.77,194.5c4.23-.75,6.86-3.73,5.45-10.08,0,0,2.04,2.35,2,5.76,0,0,1.77-2.82.82-6.14,1.73-.08,3.92.09,5.55,1.16-3.92-11.38-24.69,3.67-36.69-.11,0,0,1.08,1.47,3.16,3.4h-.02c-3.44-.27-6.27-.06-8.58.42,15.25,1.89,21.55,11.37,38.13,8.14,0,0-6.1-.69-9.81-2.56"/>
        <path class="cls-7" d="m230.3,188.69s6.62-1.08,13.6-3.15c1.19,9.12-9.26,5.3-13.6,3.15"/>
        <path class="cls-2" d="m265.55,203.08s16.7,7.61,17.9,25.93c2.44-13.05-4.09-21.95-17.9-25.93"/>
      </g>
      <polygon class="cls-6" points="167.65 158.04 169.63 164.16 176.07 164.15 170.85 167.93 172.85 174.05 167.65 170.25 162.45 174.05 164.45 167.93 159.24 164.15 165.67 164.16 167.65 158.04"/>
      <polygon class="cls-6" points="168.4 182.21 170.86 189.84 178.89 189.83 172.39 194.53 174.88 202.16 168.4 197.43 161.91 202.16 164.41 194.53 157.91 189.83 165.93 189.84 168.4 182.21"/>
      <polygon class="cls-6" points="138.72 203.1 140.43 208.39 145.99 208.38 141.49 211.63 143.21 216.92 138.72 213.64 134.24 216.92 135.96 211.63 131.46 208.38 137.02 208.39 138.72 203.1"/>
      <polygon class="cls-6" points="167.85 211.63 171.08 221.66 181.62 221.64 173.08 227.81 176.36 237.83 167.85 231.62 159.34 237.83 162.61 227.81 154.08 221.64 164.61 221.66 167.85 211.63"/>
      <polygon class="cls-6" points="138.52 166.55 141.76 176.58 152.29 176.56 143.76 182.73 147.03 192.75 138.52 186.54 130.01 192.75 133.28 182.73 124.75 176.56 135.28 176.58 138.52 166.55"/>
    </g>
  </g>
</svg>